<svg width="779" height="652" viewBox="0 0 779 652" fill="none" xmlns="http://www.w3.org/2000/svg">
<path d="M112 397C80 460.2 83.3334 515 89 534.5C32.6 561.7 17.1667 586.167 16.5 595C-0.7 614.2 -0.666665 640.333 1.5 651C6.7 630.2 28 615 38 610C58.4 610 61.8333 603.5 63.5 598.5C103.5 591.5 99.7094 579.466 100.5 585C101.5 592 131.5 589 154 595L168 601.5L174.5 610C176.1 602 195.5 620.333 205 630.5C191 563.5 140.5 538.5 115.5 532.5C115.5 484 183.5 461.5 238.5 440C371.7 415.6 510.667 344.833 563.5 312.5V352.5C561.773 356.19 566.116 362.049 566 369.5C565.87 377.868 566.464 389.264 568.5 397C571 406.5 569.959 421.27 574 425C587 437 571 508.5 584 500.5C597 492.5 610 415 616 406.5C620.191 400.563 621.279 358.487 624 352.5C626.5 347 620.5 308.5 608 277C629.2 263.8 680 209.5 700.5 183.5C724.5 157 762.696 91.5971 774.5 54.5C785 21.5001 767.667 9.49999 760.5 12.5C760.5 -5.99999 717 -1.00003 693.5 14.3049C669.568 29.8912 632.167 47.6666 616 53.4999L543.5 80.4999L452 123L346.5 183.5L238.5 258.5C209.667 278.333 144 333.8 112 397Z" stroke="black"/>
</svg>
